<svg width="32" height="32" viewBox="0 0 32 32" fill="none" xmlns="http://www.w3.org/2000/svg"><path fill-rule="evenodd" clip-rule="evenodd" d="M13.8787 4.87867C15.0502 3.7071 16.9497 3.7071 18.1213 4.87867C19.2929 6.05024 19.2929 7.94973 18.1213 9.1213C16.9497 10.2929 15.0502 10.2929 13.8787 9.1213C12.7071 7.94973 12.7071 6.05024 13.8787 4.87867ZM12.4645 3.46446C14.4171 1.51185 17.5829 1.51185 19.5355 3.46446C21.4881 5.41707 21.4881 8.5829 19.5355 10.5355L19.5303 10.5407L25.6631 20.1811C27.342 19.717 29.2158 20.1448 30.5355 21.4645C32.4881 23.4171 32.4881 26.5829 30.5355 28.5355C28.5829 30.4881 25.4171 30.4881 23.4645 28.5355C22.7449 27.8159 22.2905 26.9316 22.1013 26.0039H9.89871C9.70949 26.9316 9.25509 27.8159 8.53551 28.5355C6.5829 30.4881 3.41707 30.4881 1.46446 28.5355C-0.488153 26.5829 -0.488153 23.4171 1.46446 21.4645C2.7844 20.1445 4.65873 19.7168 6.33793 20.1814L12.4704 10.5414C12.4684 10.5394 12.4664 10.5375 12.4645 10.5355C10.5118 8.5829 10.5118 5.41707 12.4645 3.46446ZM14.1402 11.6426L8.12586 21.097C8.2674 21.2107 8.4042 21.3331 8.53551 21.4645C9.25712 22.1861 9.71205 23.0734 9.9003 24.0039H22.0997C22.2879 23.0734 22.7428 22.1861 23.4645 21.4645C23.596 21.3329 23.7331 21.2102 23.8749 21.0964L17.8607 11.6422C16.6694 12.1191 15.3316 12.1192 14.1402 11.6426ZM6.2596 22.2763C6.29322 22.2951 6.32751 22.3117 6.3623 22.3262C6.63584 22.4657 6.89246 22.6498 7.1213 22.8787C8.29286 24.0502 8.29286 25.9497 7.1213 27.1213C5.94973 28.2929 4.05024 28.2929 2.87867 27.1213C1.7071 25.9497 1.7071 24.0502 2.87867 22.8787C3.79297 21.9644 5.1506 21.7636 6.2596 22.2763ZM25.747 22.2733C25.7097 22.2944 25.6714 22.3129 25.6326 22.3288C25.361 22.4679 25.1061 22.6512 24.8787 22.8787C23.7071 24.0502 23.7071 25.9497 24.8787 27.1213C26.0502 28.2929 27.9497 28.2929 29.1213 27.1213C30.2929 25.9497 30.2929 24.0502 29.1213 22.8787C28.2088 21.9662 26.8548 21.7644 25.747 22.2733Z" fill="rgb(20, 70, 153)"></path></svg>