<svg width="32" height="32" viewBox="0 0 32 32" fill="none"
    xmlns="http://www.w3.org/2000/svg">
    <g clip-path="url(#clip0_9622_44671)">
        <path d="M19.9973 31.0039H11.9973L12.9973 25.0039H18.9973L19.9973 31.0039Z" stroke="#5322E5" stroke-width="1.99999" stroke-linecap="round" stroke-linejoin="round"></path>
        <path d="M8.99997 30.9998H22.9999" stroke="#5322E5" stroke-width="1.99999" stroke-linecap="round" stroke-linejoin="round"></path>
        <path d="M4.99732 25.0038C2.78821 25.0038 0.99733 23.213 0.99733 21.0039V5.0039C0.99733 2.79478 2.78821 1.00391 4.99732 1.00391H26.9973C29.2064 1.00391 30.9973 2.79478 30.9973 5.0039V21.0039C30.9973 23.213 29.2064 25.0038 26.9973 25.0038H4.99732Z" stroke="#5322E5" stroke-width="1.99999" stroke-linecap="round" stroke-linejoin="round"></path>
        <path d="M0.99733 15.0039L6.29065 9.7119V9.7119C6.68105 9.32125 7.31421 9.32105 7.70486 9.71145C7.70501 9.7116 7.70516 9.71175 7.70531 9.7119L10.2906 12.2972V12.2972C10.681 12.6879 11.3142 12.6881 11.7048 12.2977C11.705 12.2975 11.7052 12.2974 11.7053 12.2972L16.9973 7.00391" stroke="#5322E5" stroke-width="1.99999" stroke-linecap="round" stroke-linejoin="round"></path>
        <path d="M1 20.9998H30.9999" stroke="#5322E5" stroke-width="1.99999" stroke-linecap="round" stroke-linejoin="round"></path>
        <path d="M19 12.9998V15.9997" stroke="#5322E5" stroke-width="1.99999" stroke-linecap="round" stroke-linejoin="round"></path>
        <path d="M26.9999 12.9998V15.9997" stroke="#5322E5" stroke-width="1.99999" stroke-linecap="round" stroke-linejoin="round"></path>
        <path d="M22.9999 10V16" stroke="#5322E5" stroke-width="1.99999" stroke-linecap="round" stroke-linejoin="round"></path>
    </g>
    <defs>
        <clipPath id="clip0_9622_44671">
            <rect width="32" height="32" fill="white"></rect>
        </clipPath>
    </defs>
</svg>