<svg width="32" height="32" viewBox="0 0 32 32" fill="none"
    xmlns="http://www.w3.org/2000/svg">
    <path d="M28.6567 17.1737C31.7809 20.2979 31.7809 25.3632 28.6567 28.4874C25.5325 31.6116 20.4672 31.6116 17.3431 28.4874C14.2189 25.3632 14.2189 20.2979 17.3431 17.1737C20.4672 14.0495 25.5326 14.0495 28.6567 17.1737" stroke="#D96716" stroke-width="1.99999" stroke-linecap="round" stroke-linejoin="round"></path>
    <path d="M22.9999 18.8264V26.8264" stroke="#D96716" stroke-width="1.99999" stroke-linecap="round" stroke-linejoin="round"></path>
    <path d="M19 22.8264H26.9999" stroke="#D96716" stroke-width="1.99999" stroke-linecap="round" stroke-linejoin="round"></path>
    <path d="M6.99998 2.82666H26.9999" stroke="#D96716" stroke-width="1.99999" stroke-linecap="round" stroke-linejoin="round"></path>
    <path d="M6.99998 10.8267H26.9999" stroke="#D96716" stroke-width="1.99999" stroke-linecap="round" stroke-linejoin="round"></path>
    <path d="M6.99998 18.8264H11" stroke="#D96716" stroke-width="1.99999" stroke-linecap="round" stroke-linejoin="round"></path>
    <path d="M1.5 2.33057V2.33057C1.77614 2.33057 2 2.55442 2 2.83056C2 3.10671 1.77614 3.33056 1.5 3.33056C1.22386 3.33056 1 3.10671 1 2.83056V2.83057C1 2.55442 1.22386 2.33057 1.5 2.33057" stroke="#D96716" stroke-width="1.99999" stroke-linecap="round" stroke-linejoin="round"></path>
    <path d="M1.5 10.3306V10.3306C1.77614 10.3306 2 10.5544 2 10.8306C2 11.1067 1.77614 11.3306 1.5 11.3306C1.22386 11.3306 1 11.1067 1 10.8306V10.8306C1 10.5544 1.22386 10.3306 1.5 10.3306" stroke="#D96716" stroke-width="1.99999" stroke-linecap="round" stroke-linejoin="round"></path>
    <path d="M1.5 18.3306V18.3306C1.77614 18.3306 2 18.5544 2 18.8306C2 19.1067 1.77614 19.3306 1.5 19.3306C1.22386 19.3306 1 19.1067 1 18.8306V18.8306C1 18.5544 1.22386 18.3306 1.5 18.3306" stroke="#D96716" stroke-width="1.99999" stroke-linecap="round" stroke-linejoin="round"></path>
</svg>