<svg width="33" height="32" viewBox="0 0 33 32" fill="none"
    xmlns="http://www.w3.org/2000/svg">
    <path d="M4.83331 26V8C4.83331 7.73478 4.93867 7.48043 5.12621 7.29289C5.31374 7.10536 5.5681 7 5.83331 7H12.5C12.7163 7 12.9269 7.07018 13.1 7.2L16.5666 9.8C16.7397 9.92982 16.9503 10 17.1666 10H25.8333C26.0985 10 26.3529 10.1054 26.5404 10.2929C26.728 10.4804 26.8333 10.7348 26.8333 11V14" stroke="rgb(83, 34, 229)" stroke-width="2" stroke-linecap="round" stroke-linejoin="round"></path>
    <path d="M4.83331 26L8.60539 14.6838C8.67176 14.4847 8.7991 14.3115 8.96936 14.1888C9.13963 14.066 9.34419 14 9.55407 14H29.4459C29.6043 14 29.7605 14.0377 29.9016 14.1099C30.0426 14.1821 30.1645 14.2867 30.2571 14.4153C30.3498 14.5438 30.4106 14.6926 30.4345 14.8492C30.4583 15.0058 30.4447 15.1659 30.3946 15.3162L26.8333 26H4.83331Z" stroke="rgb(83, 34, 229)" stroke-width="2" stroke-linecap="round" stroke-linejoin="round"></path>
</svg>