<svg width="33" height="32" viewBox="0 0 33 32" fill="none"
    xmlns="http://www.w3.org/2000/svg">
    <path d="M11.924 23.071C10.5098 27.3137 4.85291 27.3137 4.85291 27.3137C4.85291 27.3137 4.8529 21.6568 9.09555 20.2426" stroke="rgb(217, 103, 22)" stroklidth="2" stroke-linecap="round" stroke-linejoin="round"></path>
    <path d="M24.6519 13.1716L16.1666 21.6569L10.5098 16L18.995 7.51472C22.2081 4.3017 25.4211 4.33305 26.7913 4.53749C27.0023 4.56894 27.1976 4.66733 27.3485 4.81817C27.4993 4.969 27.5977 5.1643 27.6291 5.37527C27.8336 6.74554 27.8649 9.95856 24.6519 13.1716Z" stroke="rgb(217, 103, 22)" stroklidth="2" stroke-linecap="round" stroke-linejoin="round"></path>
    <path d="M23.2377 14.5858V22.6569C23.2377 22.7882 23.2118 22.9182 23.1616 23.0396C23.1113 23.1609 23.0377 23.2711 22.9448 23.364L18.9021 27.4067C18.7741 27.5347 18.6138 27.6255 18.4382 27.6696C18.2626 27.7136 18.0784 27.7091 17.9052 27.6567C17.732 27.6042 17.5762 27.5058 17.4545 27.3717C17.3329 27.2377 17.2499 27.0732 17.2144 26.8957L16.1666 21.6569" stroke="rgb(217, 103, 22)" stroklidth="2" stroke-linecap="round" stroke-linejoin="round"></path>
    <path d="M17.5808 8.92896H9.50976C9.37844 8.92895 9.2484 8.95482 9.12708 9.00508C9.00575 9.05533 8.89551 9.12899 8.80265 9.22185L4.75993 13.2646C4.63195 13.3926 4.5411 13.5529 4.49707 13.7284C4.45305 13.904 4.4575 14.0882 4.50995 14.2615C4.5624 14.4347 4.66088 14.5904 4.7949 14.7121C4.92892 14.8338 5.09344 14.9168 5.27093 14.9523L10.5098 16" stroke="rgb(217, 103, 22)" stroklidth="2" stroke-linecap="round" stroke-linejoin="round"></path>
</svg>