<svg
              width="32"
              height="32"
              viewBox="0 0 32 32"
              fill="none"
              xmlns="http://www.w3.org/2000/svg"
            >
              <g clip-path="url(#clip0_3268_277079)">
                <path
                  d="M30.6667 19.668C31.0203 19.668 31.3594 19.8084 31.6095 20.0585C31.8595 20.3085 32 20.6477 32 21.0013V30.668C32 31.0216 31.8595 31.3607 31.6095 31.6108C31.3594 31.8608 31.0203 32.0013 30.6667 32.0013C30.313 32.0013 29.9739 31.8608 29.7239 31.6108C29.4738 31.3607 29.3333 31.0216 29.3333 30.668V21.0013C29.3333 20.6477 29.4738 20.3085 29.7239 20.0585C29.9739 19.8084 30.313 19.668 30.6667 19.668Z"
                  fill="#5322E5"
                ></path>
                <path
                  d="M11.3333 26.0013H23.5C23.721 26.0013 23.933 25.9135 24.0893 25.7572C24.2455 25.6009 24.3333 25.389 24.3333 25.168C24.3333 24.947 24.2455 24.735 24.0893 24.5787C23.933 24.4224 23.721 24.3346 23.5 24.3346H20.1333C19.9128 24.3347 19.6956 24.2801 19.5013 24.1757C19.307 24.0712 19.1417 23.9202 19.0201 23.7361C18.8986 23.552 18.8246 23.3407 18.8048 23.121C18.785 22.9013 18.82 22.6801 18.9067 22.4773C19.1359 21.9402 19.518 21.4823 20.0054 21.1606C20.4928 20.8389 21.064 20.6676 21.648 20.668H27.3333C27.5101 20.668 27.6797 20.7382 27.8047 20.8632C27.9298 20.9883 28 21.1578 28 21.3346V30.0013C28 30.1781 27.9298 30.3477 27.8047 30.4727C27.6797 30.5977 27.5101 30.668 27.3333 30.668H12.9813C12.1909 30.6673 11.4329 30.3529 10.874 29.794C10.315 29.235 10.0007 28.4771 10 27.6866V27.3346C10 26.981 10.1405 26.6419 10.3905 26.3918C10.6406 26.1418 10.9797 26.0013 11.3333 26.0013Z"
                  fill="#5322E5"
                ></path>
                <g clip-path="url(#clip1_3268_277079)">
                  <path
                    fill-rule="evenodd"
                    clip-rule="evenodd"
                    d="M21.33 10.665C21.33 16.5551 16.5551 21.33 10.665 21.33C4.77488 21.33 0 16.5551 0 10.665C0 4.77488 4.77488 0 10.665 0C16.5551 0 21.33 4.77488 21.33 10.665ZM11.9188 16.0775V17.775H9.5458V16.0597C8.02604 15.7398 6.73735 14.7621 6.63959 13.038H8.38154C8.47041 13.9712 9.11031 14.6999 10.7367 14.6999C12.4787 14.6999 12.8697 13.8289 12.8697 13.2868C12.8697 12.5492 12.4787 11.8559 10.4968 11.3849C8.29266 10.8516 6.78179 9.94511 6.78179 8.12318C6.78179 6.59453 8.01715 5.59912 9.5458 5.27029V3.555H11.9188V5.28806C13.5718 5.688 14.3984 6.94114 14.4517 8.30093H12.7098C12.6653 7.31441 12.141 6.63896 10.7367 6.63896C9.4036 6.63896 8.60373 7.24331 8.60373 8.09651C8.60373 8.84306 9.18141 9.33188 10.9767 9.79403C12.772 10.2562 14.6917 11.0294 14.6917 13.269C14.6828 14.8955 13.4652 15.7842 11.9188 16.0775Z"
                    fill="#5322E5"
                  ></path>
                </g>
              </g>
              <defs>
                <clipPath id="clip0_3268_277079">
                  <rect
                    width="32"
                    height="32"
                    fill="white"
                    transform="matrix(-1 0 0 1 32 0)"
                  ></rect>
                </clipPath>
                <clipPath id="clip1_3268_277079">
                  <rect width="21.33" height="21.33" fill="white"></rect>
                </clipPath>
              </defs>
            </svg>