<svg width="33" height="32" viewBox="0 0 33 32" fill="none" xmlns="http://www.w3.org/2000/svg"><path fill-rule="evenodd" clip-rule="evenodd" d="M8.50002 2.66675H24.5C27.4334 2.66675 29.8334 5.06675 29.8334 8.00008V24.0001C29.8334 26.9334 27.4334 29.3334 24.5 29.3334H8.50002C5.56669 29.3334 3.16669 26.9334 3.16669 24.0001V8.00008C3.16669 5.06675 5.56669 2.66675 8.50002 2.66675ZM24.5 5.33341H8.50002C7.03335 5.33341 5.83335 6.53341 5.83335 8.00008H27.1667C27.1667 6.53341 25.9667 5.33341 24.5 5.33341ZM12.3593 15.263C12.6886 14.6044 12.4216 13.8035 11.763 13.4741C11.1043 13.1448 10.3034 13.4118 9.97413 14.0704L8.27227 17.4741C7.8969 18.2249 7.8969 19.1085 8.27227 19.8593L9.97413 23.263C10.3034 23.9216 11.1043 24.1886 11.763 23.8593C12.4216 23.53 12.6886 22.7291 12.3593 22.0704L10.6574 18.6667L12.3593 15.263ZM23.0259 14.0704C22.6966 13.4118 21.8957 13.1448 21.2371 13.4741C20.5784 13.8035 20.3115 14.6044 20.6408 15.263L22.3426 18.6667L20.6408 22.0704C20.3115 22.7291 20.5784 23.53 21.2371 23.8593C21.8957 24.1886 22.6966 23.9216 23.0259 23.263L24.7278 19.8593C25.1032 19.1085 25.1032 18.2249 24.7278 17.4741L23.0259 14.0704ZM18.255 13.4019C18.9536 13.6347 19.3311 14.3898 19.0983 15.0884L16.4316 23.0884C16.1987 23.787 15.4436 24.1646 14.745 23.9317C14.0465 23.6988 13.6689 22.9437 13.9018 22.2451L16.5684 14.2451C16.8013 13.5466 17.5564 13.169 18.255 13.4019Z" fill="#5322E5"></path></svg>