<svg xmlns="http://www.w3.org/2000/svg" width="971" height="827" viewBox="0 0 971 827" fill="none">
<path d="M-1432.78 149.8L-1282.67 299.601V9.95139e-06L-1432.78 149.8ZM-1432.78 149.8L-1582.89 1.28949e-05L-1733 149.8L-1582.89 299.601L-1432.78 149.8ZM-832.333 149.8L-982.444 299.601M-832.333 149.8L-1132.56 149.8M-832.333 149.8C-832.333 67.0679 -899.54 1.2883e-05 -982.444 1.64993e-05C-1065.35 2.01157e-05 -1132.56 67.0679 -1132.56 149.8M-832.333 149.8C-986.197 149.8 -1038.74 149.8 -1132.56 149.8M-982.444 299.601L-1132.56 149.8M-982.444 299.601L-1132.56 449.401H-832.333L-982.444 299.601ZM-1733 600.399L-1582.89 450.599L-1432.78 600.399M-1733 600.399H-1432.78M-1733 600.399V900H-1432.78V600.399M-832.333 599.201C-832.333 516.469 -765.126 449.401 -682.222 449.401C-599.318 449.401 -532.111 516.469 -532.111 599.201C-685.975 599.201 -738.514 599.201 -832.333 599.201ZM-832.333 599.201L-982.444 599.202M-382 750.2C-464.904 750.2 -532.111 817.268 -532.111 900C-438.292 900 -385.753 900 -231.889 900M-382 750.2C-299.096 750.2 -231.889 817.268 -231.889 900M-382 750.2C-464.904 750.2 -532.111 683.132 -532.111 600.399M-382 750.2C-299.096 750.2 -231.889 683.132 -231.889 600.399M-231.889 900V600.399M-231.889 900H68.3333V600.399M-1432.78 450.599C-1432.78 367.867 -1499.98 300.799 -1582.89 300.799C-1665.79 300.799 -1733 367.867 -1733 450.599C-1639.18 450.599 -1586.64 450.599 -1432.78 450.599ZM-1432.78 450.599C-1432.78 367.867 -1365.57 300.799 -1282.67 300.799C-1199.76 300.799 -1132.56 367.867 -1132.56 450.599C-1132.56 533.332 -1199.76 600.399 -1282.67 600.399M-1432.78 450.599C-1432.78 533.332 -1365.57 600.399 -1282.67 600.399M-1282.67 600.399L-1432.78 750.2L-1282.67 900L-1132.56 750.2L-1282.67 600.399ZM668.778 599.201L518.667 449.401L668.778 299.601M668.778 599.201V299.601M668.778 599.201C668.778 516.469 735.985 449.401 818.889 449.401M668.778 599.201C668.778 681.934 735.985 749.001 818.889 749.001M668.778 299.601L368.556 299.601V0M668.778 299.601L668.778 3.60738e-05M668.778 299.601L818.889 449.401M668.778 299.601L818.889 149.8M68.3333 300.799L-81.7779 450.599L-231.889 300.799L68.3333 300.799ZM68.3333 300.799L218.444 300.8M818.889 149.8L969 9.88182e-06L668.778 3.60738e-05M818.889 149.8L668.778 3.60738e-05M818.889 149.8L969 299.601L818.889 449.401M668.778 3.60738e-05L368.556 0M368.556 0C368.556 82.7324 301.348 149.8 218.444 149.8C135.54 149.8 68.3333 82.7324 68.3333 1.18173e-05C222.197 9.98626e-06 274.736 1.11647e-06 368.556 0ZM-231.889 600.399H68.3333M-231.889 600.399C-231.889 517.667 -299.096 450.599 -382 450.599C-464.904 450.599 -532.111 517.667 -532.111 600.399M-231.889 600.399V149.8M68.3333 600.399C68.3332 517.667 135.54 450.599 218.444 450.599M68.3333 600.399C162.153 600.399 214.692 600.399 368.556 600.399C368.555 517.667 301.348 450.599 218.444 450.599M818.889 749.001C735.985 749.001 668.778 816.069 668.778 898.802C762.597 898.802 815.136 898.802 969 898.802C969 816.069 901.793 749.001 818.889 749.001ZM818.889 749.001C901.793 749.001 969 681.934 969 599.201C969 516.469 901.793 449.401 818.889 449.401M218.444 450.599V300.8M-231.889 149.8L-81.7779 299.601L68.3333 149.8L-81.7779 1.28949e-05L-231.889 149.8ZM-231.889 149.8C-231.889 67.0679 -299.096 1.2883e-05 -382 1.64994e-05C-464.904 2.01157e-05 -532.111 67.0679 -532.111 149.8M-231.889 149.8C-231.889 232.533 -299.096 299.601 -382 299.601C-464.904 299.601 -532.111 232.533 -532.111 149.8M-532.111 149.8V600.399M218.444 300.8V150.999M218.444 300.8L112.3 406.724M218.444 300.8L324.589 194.874M218.444 300.8L368.556 300.799M218.444 300.8L324.589 406.724M218.444 300.8L112.299 194.874M-982.444 749.001V599.202M-982.444 599.202V449.401M-982.444 599.202L-1088.59 705.126M-982.444 599.202L-876.299 493.277M-982.444 599.202L-1132.56 599.201M-982.444 599.202L-876.3 705.126M-982.444 599.202L-1088.59 493.277M-532.111 9.88182e-06L-682.222 149.8L-832.333 3.60738e-05L-532.111 9.88182e-06ZM-1132.56 299.601L-1282.67 149.8L-1132.56 9.95139e-06V299.601ZM-832.337 449.405V149.804L-532.115 149.804V449.405H-832.337ZM-769.793 386.99V212.223H-594.663V386.99H-769.793ZM-1670.46 837.585V662.818H-1495.33V837.585H-1670.46ZM-1132.56 900C-1132.56 817.268 -1065.35 750.2 -982.444 750.2C-899.54 750.2 -832.333 817.268 -832.333 900C-986.197 900 -1038.74 900 -1132.56 900ZM-682.222 898.802L-832.333 749.001L-682.222 599.201L-532.111 749.001L-682.222 898.802ZM518.667 599.201L368.555 449.401L518.667 299.601L518.667 599.201ZM-231.889 450.599L-81.7779 600.399L68.3333 450.599H-231.889ZM368.553 898.806V599.205H668.775V898.806H368.553ZM431.098 836.39V661.623H606.228V836.39H431.098ZM431.1 237.185V62.4182H606.23V237.185H431.1ZM-169.344 837.585V662.818H5.78545V837.585H-169.344ZM218.444 900L68.3333 750.2L218.444 600.399L368.556 750.2L218.444 900Z" stroke="url(#paint0_linear_3268_277009)" stroke-opacity="0.5" stroke-width="3" stroke-linecap="round" stroke-linejoin="round"/>
<defs>
<linearGradient id="paint0_linear_3268_277009" x1="64.517" y1="0" x2="969" y2="0" gradientUnits="userSpaceOnUse">
<stop stop-color="#DED8FD"/>
<stop offset="1" stop-color="#DED8FD" stop-opacity="0"/>
</linearGradient>
</defs>
</svg>