<svg width="32" height="32" viewBox="0 0 32 32" fill="none">
    <path d="M2.73804 11.7517L1.27805 13.227C0.873946 13.6193 0.552446 14.09 0.332825 14.611C0.113204 15.1319 0 15.6923 0 16.2585C0 16.8248 0.113204 17.3852 0.332825 17.9061C0.552446 18.427 0.873946 18.8977 1.27805 19.29L13.04 31.2927C13.3188 31.5809 13.6432 31.82 14 32.0001V17.4509L2.73804 11.7517Z" fill="currentColor"></path>
    <path d="M29.262 11.7517L30.722 13.227C31.1261 13.6193 31.4476 14.09 31.6672 14.611C31.8868 15.1319 32 15.6923 32 16.2585C32 16.8248 31.8868 17.3852 31.6672 17.9061C31.4476 18.427 31.1261 18.8977 30.722 19.29L18.96 31.2927C18.6812 31.5809 18.3568 31.82 18 32.0001V17.4509L29.262 11.7517Z" fill="currentColor"></path>
    <path d="M26.4379 8.74005L19.0779 1.28259C18.6882 0.876789 18.2219 0.554151 17.7066 0.333836C17.1913 0.11352 16.6374 0 16.0779 0C15.5183 0 14.9645 0.11352 14.4491 0.333836C13.9338 0.554151 13.4675 0.876789 13.0779 1.28259L5.69788 8.74005L16.0379 13.9542L26.4379 8.74005Z" fill="currentColor"></path>
</svg>